# Blender v2.93.4 OBJ File: 'Lemari Belakang  Revisi.blend'
# www.blender.org
mtllib Lemari Belakang  Revisi.mtl
o Layer0_001_Mesh.009
v 0.489424 -0.069206 -0.486140
v -0.696245 -0.069206 0.179023
v -0.696245 -0.069206 -0.486140
v -0.669636 -0.069206 0.179023
v 0.470505 -0.069206 0.179023
v 0.489424 -0.069206 0.179023
v 0.489424 1.879256 0.179023
v -0.696245 1.879256 -0.486140
v -0.696245 1.879256 0.179023
v 0.489424 1.879256 -0.486140
v 0.470505 -0.024562 0.179023
v 0.470505 1.831429 0.179023
v -0.669636 1.831429 0.179023
v -0.669636 -0.024562 0.179023
v -0.669636 -0.013318 0.179023
v 0.470505 1.831429 -0.197215
v -0.669636 -0.024562 -0.197215
v 0.470505 -0.024562 -0.197215
v -0.669636 -0.013318 -0.197215
v -0.669636 1.831429 -0.197215
v 0.470505 0.781823 0.084954
v -0.669636 0.781823 -0.153171
vt -0.993024 0.396780
vt 0.000000 0.000000
vt 0.000000 0.396780
vt -0.022286 0.000000
vt -0.977179 0.000000
vt -0.993024 0.000000
vt 0.993024 0.000000
vt 0.000000 0.396780
vt 0.000000 0.000000
vt 0.993024 0.396780
vt -0.396780 0.997159
vt 0.000000 0.997159
vt -0.396780 0.000000
vt -0.579175 0.404223
vt -0.623749 0.359463
vt -0.579175 0.359463
vt -0.623749 0.404223
vt 0.396780 0.000000
vt 0.000000 0.997159
vt 0.000000 0.000000
vt 0.396780 0.997159
vt 0.993024 0.997159
vt 0.977179 0.000000
vt 0.993024 0.000000
vt 0.977179 0.022847
vt 0.977179 0.972683
vt 0.022286 0.972683
vt 0.022286 0.022847
vt 0.022286 0.000000
vt 0.022286 0.028602
vt 0.977179 0.972683
vt 0.022286 0.022847
vt 0.977179 0.022847
vt 0.022286 0.028602
vt 0.022286 0.972683
vt 0.224432 0.022847
vt -0.000000 0.028602
vt -0.000000 0.022847
vt 0.224432 0.028602
vt 0.977179 0.000000
vt 0.022286 0.224432
vt 0.022286 0.000000
vt 0.977179 0.224432
vt -0.000000 0.022847
vt -0.056113 0.435529
vt -0.224432 0.022847
vt -0.977179 0.224432
vt -0.022286 0.000000
vt -0.022286 0.224432
vt -0.977179 0.000000
vn 0.0000 -1.0000 0.0000
vn 0.0000 1.0000 0.0000
vn -1.0000 -0.0000 0.0000
vn 0.0000 -0.0000 -1.0000
vn 1.0000 0.0000 0.0000
vn 0.0000 0.0000 1.0000
usemtl Material.008
s 1
f 1/1/1 2/2/1 3/3/1
f 2/2/1 1/1/1 4/4/1
f 4/4/1 1/1/1 5/5/1
f 5/5/1 1/1/1 6/6/1
f 7/7/2 8/8/2 9/9/2
f 8/8/2 7/7/2 10/10/2
f 8/11/3 2/2/3 9/12/3
f 2/2/3 8/11/3 3/13/3
f 8/14/4 1/15/4 3/16/4
f 1/15/4 8/14/4 10/17/4
f 1/18/5 7/19/5 6/20/5
f 7/19/5 1/18/5 10/21/5
f 7/22/6 5/23/6 6/24/6
f 5/23/6 7/22/6 11/25/6
f 11/25/6 7/22/6 12/26/6
f 12/26/6 7/22/6 13/27/6
f 14/28/6 2/2/6 4/29/6
f 2/2/6 14/28/6 9/12/6
f 9/12/6 14/28/6 15/30/6
f 9/12/6 15/30/6 13/27/6
f 9/12/6 13/27/6 7/22/6
f 16/31/6 17/32/6 18/33/6
f 17/32/6 16/31/6 19/34/6
f 19/34/6 16/31/6 20/35/6
f 17/36/5 15/37/5 14/38/5
f 15/37/5 17/36/5 19/39/5
f 11/40/2 17/41/2 14/42/2
f 17/41/2 11/40/2 18/43/2
f 11/44/3 21/45/3 18/46/3
f 16/47/1 13/48/1 20/49/1
f 13/48/1 16/47/1 12/50/1
l 19 22
o Cube_Cube.006
v -0.663046 1.354657 0.149715
v -0.663046 1.389984 0.149715
v -0.663046 1.354657 -0.287817
v -0.663046 1.389984 -0.287817
v 0.472558 1.354657 0.149715
v 0.472558 1.389984 0.149715
v 0.472558 1.354657 -0.287817
v 0.472558 1.389984 -0.287817
vt 0.375000 0.000000
vt 0.625000 0.000000
vt 0.625000 0.250000
vt 0.375000 0.250000
vt 0.625000 0.500000
vt 0.375000 0.500000
vt 0.625000 0.750000
vt 0.375000 0.750000
vt 0.625000 1.000000
vt 0.375000 1.000000
vt 0.125000 0.500000
vt 0.125000 0.750000
vt 0.875000 0.500000
vt 0.875000 0.750000
vn -1.0000 0.0000 0.0000
vn 0.0000 0.0000 -1.0000
vn 1.0000 0.0000 0.0000
vn 0.0000 0.0000 1.0000
vn 0.0000 -1.0000 0.0000
vn 0.0000 1.0000 0.0000
usemtl Material.011
s off
f 23/51/7 24/52/7 26/53/7 25/54/7
f 25/54/8 26/53/8 30/55/8 29/56/8
f 29/56/9 30/55/9 28/57/9 27/58/9
f 27/58/10 28/57/10 24/59/10 23/60/10
f 25/61/11 29/56/11 27/58/11 23/62/11
f 30/55/12 26/63/12 24/64/12 28/57/12
o Doors_001_Mesh.010
v 0.462304 -0.024562 0.179023
v -0.677836 -0.069206 0.179023
v 0.462304 -0.069206 0.179023
v -0.677836 -0.024562 0.179023
vt 0.977179 0.022847
vt 0.022286 0.000000
vt 0.977179 0.000000
vt 0.022286 0.022847
vn 0.0000 0.0000 1.0000
usemtl Material.014
s 1
f 31/65/13 32/66/13 33/67/13
f 32/66/13 31/65/13 34/68/13
o Cube.002_Cube.008
v -0.692665 0.401689 0.149715
v -0.692665 0.437016 0.149715
v -0.692665 0.401689 -0.287817
v -0.692665 0.437016 -0.287817
v 0.476918 0.401689 0.149715
v 0.476918 0.437016 0.149715
v 0.476918 0.401689 -0.287817
v 0.476918 0.437016 -0.287817
vt 0.375000 0.000000
vt 0.625000 0.000000
vt 0.625000 0.250000
vt 0.375000 0.250000
vt 0.625000 0.500000
vt 0.375000 0.500000
vt 0.625000 0.750000
vt 0.375000 0.750000
vt 0.625000 1.000000
vt 0.375000 1.000000
vt 0.125000 0.500000
vt 0.125000 0.750000
vt 0.875000 0.500000
vt 0.875000 0.750000
vn -1.0000 0.0000 0.0000
vn 0.0000 0.0000 -1.0000
vn 1.0000 0.0000 0.0000
vn 0.0000 0.0000 1.0000
vn 0.0000 -1.0000 0.0000
vn 0.0000 1.0000 0.0000
usemtl Material.013
s off
f 35/69/14 36/70/14 38/71/14 37/72/14
f 37/72/15 38/71/15 42/73/15 41/74/15
f 41/74/16 42/73/16 40/75/16 39/76/16
f 39/76/17 40/75/17 36/77/17 35/78/17
f 37/79/18 41/74/18 39/76/18 35/80/18
f 42/73/19 38/81/19 36/82/19 40/75/19
o Cube.003_Cube.001
v -0.692665 0.906360 0.149715
v -0.692665 0.941687 0.149715
v -0.692665 0.906360 -0.287817
v -0.692665 0.941687 -0.287817
v 0.476918 0.906360 0.149715
v 0.476918 0.941687 0.149715
v 0.476918 0.906360 -0.287817
v 0.476918 0.941687 -0.287817
vt 0.375000 0.000000
vt 0.625000 0.000000
vt 0.625000 0.250000
vt 0.375000 0.250000
vt 0.625000 0.500000
vt 0.375000 0.500000
vt 0.625000 0.750000
vt 0.375000 0.750000
vt 0.625000 1.000000
vt 0.375000 1.000000
vt 0.125000 0.500000
vt 0.125000 0.750000
vt 0.875000 0.500000
vt 0.875000 0.750000
vn -1.0000 0.0000 0.0000
vn 0.0000 0.0000 -1.0000
vn 1.0000 0.0000 0.0000
vn 0.0000 0.0000 1.0000
vn 0.0000 -1.0000 0.0000
vn 0.0000 1.0000 0.0000
usemtl Material.012
s off
f 43/83/20 44/84/20 46/85/20 45/86/20
f 45/86/21 46/85/21 50/87/21 49/88/21
f 49/88/22 50/87/22 48/89/22 47/90/22
f 47/90/23 48/89/23 44/91/23 43/92/23
f 45/93/24 49/88/24 47/90/24 43/94/24
f 50/87/25 46/95/25 44/96/25 48/89/25
o Cube.004_Cube.002
v -0.115096 1.876060 0.203462
v -0.115096 1.876060 0.168135
v -0.675549 1.876060 0.203462
v -0.675549 1.876060 0.168135
v -0.115096 -0.033501 0.203462
v -0.115096 -0.033501 0.168135
v -0.675549 -0.033501 0.203462
v -0.675549 -0.033501 0.168135
vt 0.375000 0.000000
vt 0.625000 0.000000
vt 0.625000 0.250000
vt 0.375000 0.250000
vt 0.625000 0.500000
vt 0.375000 0.500000
vt 0.625000 0.750000
vt 0.375000 0.750000
vt 0.625000 1.000000
vt 0.375000 1.000000
vt 0.125000 0.500000
vt 0.125000 0.750000
vt 0.875000 0.500000
vt 0.875000 0.750000
vn 0.0000 1.0000 0.0000
vn -1.0000 -0.0000 0.0000
vn 0.0000 -1.0000 0.0000
vn 1.0000 0.0000 0.0000
vn 0.0000 0.0000 1.0000
vn -0.0000 -0.0000 -1.0000
usemtl Material.005
s off
f 51/97/26 52/98/26 54/99/26 53/100/26
f 53/100/27 54/99/27 58/101/27 57/102/27
f 57/102/28 58/101/28 56/103/28 55/104/28
f 55/104/29 56/103/29 52/105/29 51/106/29
f 53/107/30 57/102/30 55/104/30 51/108/30
f 58/101/31 54/109/31 52/110/31 56/103/31
o Cube.005_Cube.003
v 0.472127 1.876060 0.201741
v 0.472127 1.876060 0.166414
v -0.100356 1.876060 0.201741
v -0.100356 1.876060 0.166414
v 0.472127 -0.033501 0.201741
v 0.472127 -0.033501 0.166414
v -0.100355 -0.033501 0.201741
v -0.100355 -0.033501 0.166414
vt 0.375000 0.000000
vt 0.625000 0.000000
vt 0.625000 0.250000
vt 0.375000 0.250000
vt 0.625000 0.500000
vt 0.375000 0.500000
vt 0.625000 0.750000
vt 0.375000 0.750000
vt 0.625000 1.000000
vt 0.375000 1.000000
vt 0.125000 0.500000
vt 0.125000 0.750000
vt 0.875000 0.500000
vt 0.875000 0.750000
vn 0.0000 1.0000 0.0000
vn -1.0000 -0.0000 0.0000
vn 0.0000 -1.0000 0.0000
vn 1.0000 0.0000 0.0000
vn 0.0000 0.0000 1.0000
vn -0.0000 -0.0000 -1.0000
usemtl Material.009
s off
f 59/111/32 60/112/32 62/113/32 61/114/32
f 61/114/33 62/113/33 66/115/33 65/116/33
f 65/116/34 66/115/34 64/117/34 63/118/34
f 63/118/35 64/117/35 60/119/35 59/120/35
f 61/121/36 65/116/36 63/118/36 59/122/36
f 66/115/37 62/123/37 60/124/37 64/117/37
o Cube.001_Cube.004
v -0.166868 0.971637 0.186730
v -0.166868 0.971637 0.184867
v -0.197937 0.971637 0.186730
v -0.197937 0.971637 0.184867
v -0.166868 0.870922 0.186730
v -0.166868 0.870922 0.184867
v -0.197937 0.870922 0.186730
v -0.197937 0.870922 0.184867
vt 0.375000 0.000000
vt 0.625000 0.000000
vt 0.625000 0.250000
vt 0.375000 0.250000
vt 0.625000 0.500000
vt 0.375000 0.500000
vt 0.625000 0.750000
vt 0.375000 0.750000
vt 0.625000 1.000000
vt 0.375000 1.000000
vt 0.125000 0.500000
vt 0.125000 0.750000
vt 0.875000 0.500000
vt 0.875000 0.750000
vn 0.0000 1.0000 0.0000
vn -1.0000 0.0000 0.0000
vn 0.0000 -1.0000 0.0000
vn 1.0000 0.0000 0.0000
vn 0.0000 0.0000 1.0000
vn 0.0000 0.0000 -1.0000
usemtl None
s off
f 67/125/38 68/126/38 70/127/38 69/128/38
f 69/128/39 70/127/39 74/129/39 73/130/39
f 73/130/40 74/129/40 72/131/40 71/132/40
f 71/132/41 72/131/41 68/133/41 67/134/41
f 69/135/42 73/130/42 71/132/42 67/136/42
f 74/129/43 70/137/43 68/138/43 72/131/43
o Cube.006_Cube.005
v -0.163655 0.971637 0.228176
v -0.163655 0.971637 0.179416
v -0.201150 0.971637 0.228176
v -0.201150 0.971637 0.179416
v -0.163655 0.870922 0.228176
v -0.163655 0.870922 0.179416
v -0.201150 0.870922 0.228176
v -0.201150 0.870922 0.179416
vt 0.375000 0.000000
vt 0.625000 0.000000
vt 0.625000 0.250000
vt 0.375000 0.250000
vt 0.625000 0.500000
vt 0.375000 0.500000
vt 0.625000 0.750000
vt 0.375000 0.750000
vt 0.625000 1.000000
vt 0.375000 1.000000
vt 0.125000 0.500000
vt 0.125000 0.750000
vt 0.875000 0.500000
vt 0.875000 0.750000
vn 0.0000 1.0000 0.0000
vn -1.0000 0.0000 0.0000
vn 0.0000 -1.0000 -0.0000
vn 1.0000 0.0000 -0.0000
vn 0.0000 0.0000 1.0000
vn 0.0000 0.0000 -1.0000
usemtl Material.004
s off
f 75/139/44 76/140/44 78/141/44 77/142/44
f 77/142/45 78/141/45 82/143/45 81/144/45
f 81/144/46 82/143/46 80/145/46 79/146/46
f 79/146/47 80/145/47 76/147/47 75/148/47
f 77/149/48 81/144/48 79/146/48 75/150/48
f 82/143/49 78/151/49 76/152/49 80/145/49
o Cube.007_Cube.009
v -0.025538 0.971637 0.229041
v -0.025538 0.971637 0.180281
v -0.063033 0.971637 0.229041
v -0.063033 0.971637 0.180281
v -0.025538 0.870922 0.229041
v -0.025538 0.870922 0.180281
v -0.063033 0.870922 0.229041
v -0.063033 0.870922 0.180281
vt 0.375000 0.000000
vt 0.625000 0.000000
vt 0.625000 0.250000
vt 0.375000 0.250000
vt 0.625000 0.500000
vt 0.375000 0.500000
vt 0.625000 0.750000
vt 0.375000 0.750000
vt 0.625000 1.000000
vt 0.375000 1.000000
vt 0.125000 0.500000
vt 0.125000 0.750000
vt 0.875000 0.500000
vt 0.875000 0.750000
vn 0.0000 1.0000 0.0000
vn -1.0000 -0.0000 0.0000
vn 0.0000 -1.0000 -0.0000
vn 1.0000 0.0000 -0.0000
vn 0.0000 0.0000 1.0000
vn 0.0000 0.0000 -1.0000
usemtl Material.010
s off
f 83/153/50 84/154/50 86/155/50 85/156/50
f 85/156/51 86/155/51 90/157/51 89/158/51
f 89/158/52 90/157/52 88/159/52 87/160/52
f 87/160/53 88/159/53 84/161/53 83/162/53
f 85/163/54 89/158/54 87/160/54 83/164/54
f 90/157/55 86/165/55 84/166/55 88/159/55
